<?xml version="1.0" encoding="utf-8"?>
<!-- Generator: Adobe Illustrator 23.0.0, SVG Export Plug-In . SVG Version: 6.00 Build 0)  -->
<svg version="1.1" id="Livello_1" xmlns="http://www.w3.org/2000/svg" xmlns:xlink="http://www.w3.org/1999/xlink" x="0px" y="0px"
	 viewBox="0 0 800 555" style="enable-background:new 0 0 800 555;" xml:space="preserve">
<style type="text/css">
	.st0{fill:none;}
	.st1{fill:#0E649E;}
	.st2{fill:#B77F43;}
	.st3{fill:#DCA665;}
	.st4{fill:#F4C080;}
	.st5{fill:#3AAA35;}
	.st6{fill:#FFFFFF;}
	.st7{fill:none;stroke:#0E649E;stroke-width:5;stroke-miterlimit:10;}
</style>
<g>
	<rect x="475.25" y="76" class="st0" width="166.5" height="80"/>
	<path class="st1" d="M483.37,95.24l0.29,1.42h0.1l0.31-1.42l3.46-11.54h4.04l-6.19,17.43h-3.4l-6.22-17.43h4.04L483.37,95.24z"/>
	<path class="st1" d="M504.3,101.14c-0.14-0.44-0.26-0.87-0.35-1.29c-0.09-0.42-0.15-0.84-0.19-1.26c-0.53,0.82-1.23,1.5-2.11,2.05
		c-0.88,0.55-1.86,0.83-2.95,0.83c-1.82,0-3.21-0.47-4.18-1.4c-0.97-0.93-1.46-2.22-1.46-3.85c0-1.69,0.67-3,2-3.94
		c1.33-0.94,3.21-1.41,5.62-1.41h3.04v-1.53c0-0.91-0.27-1.63-0.8-2.14c-0.53-0.52-1.3-0.77-2.31-0.77c-0.89,0-1.6,0.21-2.13,0.64
		c-0.53,0.42-0.79,0.98-0.79,1.65l-3.77,0.02l-0.02-0.1c-0.08-1.38,0.54-2.59,1.84-3.66c1.31-1.06,3-1.6,5.1-1.6
		c2.03,0,3.67,0.52,4.92,1.55s1.87,2.51,1.87,4.45v7.75c0,0.72,0.05,1.41,0.14,2.07c0.1,0.66,0.25,1.31,0.47,1.94H504.3z
		 M499.51,98.33c0.98,0,1.86-0.25,2.65-0.74c0.79-0.49,1.31-1.06,1.57-1.69v-2.58h-3.11c-1.14,0-2.03,0.28-2.67,0.85
		c-0.64,0.56-0.97,1.23-0.97,1.99c0,0.67,0.22,1.2,0.65,1.59C498.07,98.14,498.7,98.33,499.51,98.33z"/>
	<path class="st1" d="M520.43,87.23l-1.68-0.06c-0.76,0-1.4,0.16-1.91,0.48c-0.51,0.32-0.91,0.78-1.18,1.37v12.12h-3.92V83.7h3.58
		l0.26,2.53c0.44-0.89,1.01-1.59,1.7-2.09c0.69-0.5,1.49-0.76,2.39-0.76c0.24,0,0.46,0.02,0.66,0.06s0.39,0.08,0.56,0.14
		L520.43,87.23z"/>
	<path class="st1" d="M527.5,79.43h-3.92V76h3.92V79.43z M527.5,101.14h-3.92V83.7h3.92V101.14z"/>
	<path class="st1" d="M542.39,101.14c-0.14-0.44-0.26-0.87-0.35-1.29c-0.09-0.42-0.15-0.84-0.19-1.26c-0.53,0.82-1.23,1.5-2.11,2.05
		c-0.88,0.55-1.86,0.83-2.95,0.83c-1.82,0-3.21-0.47-4.18-1.4c-0.97-0.93-1.46-2.22-1.46-3.85c0-1.69,0.67-3,2-3.94
		c1.33-0.94,3.21-1.41,5.62-1.41h3.04v-1.53c0-0.91-0.27-1.63-0.8-2.14c-0.53-0.52-1.3-0.77-2.31-0.77c-0.89,0-1.6,0.21-2.13,0.64
		c-0.53,0.42-0.79,0.98-0.79,1.65l-3.77,0.02l-0.02-0.1c-0.08-1.38,0.54-2.59,1.84-3.66c1.31-1.06,3-1.6,5.1-1.6
		c2.03,0,3.67,0.52,4.92,1.55s1.87,2.51,1.87,4.45v7.75c0,0.72,0.05,1.41,0.14,2.07c0.1,0.66,0.25,1.31,0.47,1.94H542.39z
		 M537.61,98.33c0.98,0,1.86-0.25,2.65-0.74c0.79-0.49,1.31-1.06,1.57-1.69v-2.58h-3.11c-1.14,0-2.03,0.28-2.67,0.85
		c-0.64,0.56-0.97,1.23-0.97,1.99c0,0.67,0.22,1.2,0.65,1.59C536.17,98.14,536.79,98.33,537.61,98.33z"/>
	<path class="st1" d="M565.14,93c0,2.55-0.59,4.6-1.78,6.15c-1.19,1.55-2.86,2.33-5.02,2.33c-1.1,0-2.05-0.23-2.85-0.68
		s-1.48-1.11-2.01-1.97l-0.47,2.3h-3.17V76h3.92v9.68c0.54-0.74,1.18-1.31,1.93-1.71s1.63-0.6,2.63-0.6c2.18,0,3.86,0.85,5.05,2.55
		c1.19,1.7,1.78,3.94,1.78,6.74V93z M561.23,92.66c0-1.82-0.31-3.28-0.93-4.4s-1.61-1.68-2.96-1.68c-0.87,0-1.6,0.19-2.18,0.58
		c-0.59,0.39-1.05,0.92-1.39,1.61v7.32c0.33,0.7,0.79,1.24,1.39,1.62s1.33,0.57,2.22,0.57c1.35,0,2.34-0.48,2.95-1.43
		c0.61-0.95,0.92-2.24,0.92-3.86V92.66z"/>
	<path class="st1" d="M572.7,101.14h-3.92V76h3.92V101.14z"/>
	<path class="st1" d="M584.48,101.48c-2.55,0-4.54-0.8-5.97-2.41c-1.43-1.61-2.15-3.69-2.15-6.24v-0.64c0-2.56,0.72-4.67,2.15-6.32
		c1.43-1.66,3.29-2.48,5.55-2.47c2.34,0,4.11,0.72,5.32,2.17c1.2,1.45,1.8,3.38,1.8,5.79v2.11H580.4l-0.03,0.08
		c0.04,1.43,0.42,2.59,1.13,3.48s1.78,1.34,3.21,1.34c1.06,0,1.98-0.13,2.76-0.39c0.78-0.26,1.5-0.63,2.17-1.11l1.27,2.56
		c-0.67,0.58-1.55,1.07-2.64,1.47S585.91,101.48,584.48,101.48z M584.06,86.52c-1.02,0-1.84,0.37-2.45,1.1s-0.99,1.69-1.14,2.88
		l0.03,0.08h6.82v-0.31c0-1.12-0.26-2.02-0.78-2.71C586.01,86.87,585.19,86.52,584.06,86.52z"/>
	<path class="st1" d="M483.37,134.84l0.29,1.42h0.1l0.31-1.42l3.46-11.54h4.04l-6.19,17.43h-3.4l-6.22-17.43h4.04L483.37,134.84z"/>
	<path class="st1" d="M504.3,140.74c-0.14-0.44-0.26-0.87-0.35-1.29c-0.09-0.42-0.15-0.84-0.19-1.26c-0.53,0.82-1.23,1.5-2.11,2.05
		c-0.88,0.55-1.86,0.83-2.95,0.83c-1.82,0-3.21-0.47-4.18-1.4c-0.97-0.93-1.46-2.22-1.46-3.85c0-1.69,0.67-3,2-3.94
		c1.33-0.94,3.21-1.41,5.62-1.41h3.04v-1.53c0-0.91-0.27-1.63-0.8-2.14c-0.53-0.52-1.3-0.77-2.31-0.77c-0.89,0-1.6,0.21-2.13,0.64
		c-0.53,0.42-0.79,0.98-0.79,1.65l-3.77,0.02l-0.02-0.1c-0.08-1.38,0.54-2.59,1.84-3.66c1.31-1.06,3-1.6,5.1-1.6
		c2.03,0,3.67,0.52,4.92,1.55s1.87,2.51,1.87,4.45v7.75c0,0.72,0.05,1.41,0.14,2.07c0.1,0.66,0.25,1.31,0.47,1.94H504.3z
		 M499.51,137.93c0.98,0,1.86-0.25,2.65-0.74c0.79-0.49,1.31-1.06,1.57-1.69v-2.58h-3.11c-1.14,0-2.03,0.28-2.67,0.85
		c-0.64,0.56-0.97,1.23-0.97,1.99c0,0.67,0.22,1.2,0.65,1.59C498.07,137.74,498.7,137.93,499.51,137.93z"/>
	<path class="st1" d="M515.92,140.74H512V115.6h3.92V140.74z"/>
	<path class="st1" d="M531.18,138.16c-0.54,0.93-1.23,1.65-2.07,2.16c-0.84,0.5-1.82,0.76-2.92,0.76c-1.87,0-3.33-0.61-4.38-1.85
		c-1.05-1.23-1.58-3.14-1.58-5.73v-10.2h3.9v10.23c0,1.67,0.24,2.81,0.72,3.42s1.24,0.93,2.26,0.93c0.95,0,1.74-0.17,2.38-0.51
		c0.64-0.34,1.14-0.83,1.51-1.47v-12.6h3.92v17.43h-3.37L531.18,138.16z"/>
	<path class="st1" d="M546.39,141.08c-2.55,0-4.54-0.8-5.97-2.41c-1.43-1.61-2.15-3.69-2.15-6.24v-0.64c0-2.56,0.72-4.67,2.15-6.32
		c1.43-1.66,3.29-2.48,5.55-2.47c2.34,0,4.11,0.72,5.32,2.17c1.2,1.45,1.8,3.38,1.8,5.79v2.11h-10.78l-0.03,0.08
		c0.04,1.43,0.42,2.59,1.13,3.48s1.78,1.34,3.21,1.34c1.06,0,1.98-0.13,2.76-0.39c0.78-0.26,1.5-0.63,2.17-1.11l1.27,2.56
		c-0.67,0.58-1.55,1.07-2.64,1.47S547.82,141.08,546.39,141.08z M545.97,126.12c-1.02,0-1.84,0.37-2.45,1.1s-0.99,1.69-1.14,2.88
		l0.03,0.08h6.82v-0.31c0-1.12-0.26-2.02-0.78-2.71C547.92,126.47,547.1,126.12,545.97,126.12z"/>
</g>
<g>
	<rect x="488.25" y="401.85" class="st0" width="166.5" height="80"/>
	<path class="st1" d="M496.37,421.09l0.29,1.42h0.1l0.31-1.42l3.46-11.54h4.04l-6.19,17.43h-3.4l-6.22-17.43h4.04L496.37,421.09z"/>
	<path class="st1" d="M517.3,426.99c-0.14-0.44-0.26-0.87-0.35-1.29c-0.09-0.42-0.15-0.84-0.19-1.26c-0.53,0.82-1.23,1.5-2.11,2.05
		c-0.88,0.55-1.86,0.83-2.95,0.83c-1.82,0-3.21-0.47-4.18-1.4c-0.97-0.93-1.46-2.22-1.46-3.85c0-1.69,0.67-3,2-3.94
		c1.33-0.94,3.21-1.41,5.62-1.41h3.04v-1.53c0-0.91-0.27-1.63-0.8-2.14c-0.53-0.52-1.3-0.77-2.31-0.77c-0.89,0-1.6,0.21-2.13,0.64
		c-0.53,0.42-0.79,0.97-0.79,1.65l-3.77,0.02l-0.02-0.1c-0.08-1.38,0.54-2.59,1.84-3.66c1.31-1.06,3-1.59,5.1-1.59
		c2.03,0,3.67,0.52,4.92,1.55s1.87,2.51,1.87,4.45v7.75c0,0.72,0.05,1.41,0.14,2.07c0.1,0.66,0.25,1.31,0.47,1.94H517.3z
		 M512.51,424.19c0.98,0,1.86-0.25,2.65-0.74c0.79-0.49,1.31-1.06,1.57-1.69v-2.58h-3.11c-1.14,0-2.03,0.28-2.67,0.85
		c-0.64,0.56-0.97,1.23-0.97,1.99c0,0.67,0.22,1.2,0.65,1.59C511.07,423.99,511.7,424.19,512.51,424.19z"/>
	<path class="st1" d="M533.43,413.08l-1.68-0.06c-0.76,0-1.4,0.16-1.91,0.48c-0.51,0.32-0.91,0.78-1.18,1.37v12.12h-3.92v-17.43
		h3.58l0.26,2.53c0.44-0.89,1.01-1.59,1.7-2.09c0.69-0.5,1.49-0.76,2.39-0.76c0.24,0,0.46,0.02,0.66,0.06
		c0.2,0.04,0.39,0.08,0.56,0.14L533.43,413.08z"/>
	<path class="st1" d="M540.5,405.29h-3.92v-3.43h3.92V405.29z M540.5,426.99h-3.92v-17.43h3.92V426.99z"/>
	<path class="st1" d="M555.39,426.99c-0.14-0.44-0.26-0.87-0.35-1.29c-0.09-0.42-0.15-0.84-0.19-1.26c-0.53,0.82-1.23,1.5-2.11,2.05
		c-0.88,0.55-1.86,0.83-2.95,0.83c-1.82,0-3.21-0.47-4.18-1.4c-0.97-0.93-1.46-2.22-1.46-3.85c0-1.69,0.67-3,2-3.94
		c1.33-0.94,3.21-1.41,5.62-1.41h3.04v-1.53c0-0.91-0.27-1.63-0.8-2.14c-0.53-0.52-1.3-0.77-2.31-0.77c-0.89,0-1.6,0.21-2.13,0.64
		c-0.53,0.42-0.79,0.97-0.79,1.65l-3.77,0.02l-0.02-0.1c-0.08-1.38,0.54-2.59,1.84-3.66c1.31-1.06,3-1.59,5.1-1.59
		c2.03,0,3.67,0.52,4.92,1.55s1.87,2.51,1.87,4.45v7.75c0,0.72,0.05,1.41,0.14,2.07c0.1,0.66,0.25,1.31,0.47,1.94H555.39z
		 M550.61,424.19c0.98,0,1.86-0.25,2.65-0.74c0.79-0.49,1.31-1.06,1.57-1.69v-2.58h-3.11c-1.14,0-2.03,0.28-2.67,0.85
		c-0.64,0.56-0.97,1.23-0.97,1.99c0,0.67,0.22,1.2,0.65,1.59C549.17,423.99,549.79,424.19,550.61,424.19z"/>
	<path class="st1" d="M578.14,418.85c0,2.55-0.59,4.6-1.78,6.15c-1.19,1.55-2.86,2.33-5.02,2.33c-1.1,0-2.05-0.23-2.85-0.68
		s-1.48-1.11-2.01-1.97l-0.47,2.3h-3.17v-25.14h3.92v9.68c0.54-0.74,1.18-1.31,1.93-1.71s1.63-0.6,2.63-0.6
		c2.18,0,3.86,0.85,5.05,2.55c1.19,1.7,1.78,3.94,1.78,6.74V418.85z M574.23,418.51c0-1.82-0.31-3.28-0.93-4.4s-1.61-1.68-2.96-1.68
		c-0.87,0-1.6,0.19-2.18,0.58c-0.59,0.39-1.05,0.92-1.39,1.61v7.32c0.33,0.7,0.79,1.24,1.39,1.62c0.59,0.38,1.33,0.57,2.22,0.57
		c1.35,0,2.34-0.47,2.95-1.43c0.61-0.95,0.92-2.24,0.92-3.86V418.51z"/>
	<path class="st1" d="M585.7,426.99h-3.92v-25.14h3.92V426.99z"/>
	<path class="st1" d="M597.48,427.33c-2.55,0-4.54-0.8-5.97-2.41c-1.43-1.61-2.15-3.69-2.15-6.24v-0.64c0-2.56,0.72-4.67,2.15-6.32
		c1.43-1.66,3.29-2.48,5.55-2.47c2.34,0,4.11,0.72,5.32,2.17c1.2,1.45,1.8,3.38,1.8,5.79v2.11H593.4l-0.03,0.08
		c0.04,1.43,0.42,2.59,1.13,3.48s1.78,1.34,3.21,1.34c1.06,0,1.98-0.13,2.76-0.39c0.78-0.26,1.5-0.63,2.17-1.11l1.27,2.56
		c-0.67,0.58-1.55,1.07-2.64,1.47S598.91,427.33,597.48,427.33z M597.06,412.38c-1.02,0-1.84,0.37-2.45,1.1
		c-0.61,0.74-0.99,1.69-1.14,2.88l0.03,0.08h6.82v-0.31c0-1.12-0.26-2.02-0.78-2.71C599.01,412.72,598.19,412.38,597.06,412.38z"/>
	<path class="st1" d="M493.86,449.16l0.23,2.51c0.57-0.89,1.29-1.59,2.15-2.09c0.86-0.5,1.84-0.75,2.92-0.75
		c1.82,0,3.23,0.56,4.25,1.68c1.02,1.12,1.52,2.86,1.52,5.24v10.84h-3.92v-10.81c0-1.35-0.26-2.32-0.79-2.88s-1.32-0.85-2.38-0.85
		c-0.84,0-1.56,0.16-2.18,0.47c-0.61,0.32-1.1,0.75-1.47,1.31v12.76h-3.92v-17.43H493.86z"/>
	<path class="st1" d="M519.51,466.59c-0.14-0.44-0.25-0.87-0.35-1.29c-0.09-0.42-0.15-0.84-0.18-1.26c-0.53,0.82-1.23,1.5-2.11,2.05
		s-1.86,0.83-2.95,0.83c-1.82,0-3.21-0.47-4.18-1.4c-0.97-0.93-1.46-2.22-1.46-3.85c0-1.69,0.67-3,2-3.94
		c1.33-0.94,3.21-1.41,5.62-1.41h3.05v-1.53c0-0.91-0.27-1.63-0.8-2.14c-0.53-0.52-1.3-0.77-2.31-0.77c-0.89,0-1.6,0.21-2.13,0.64
		c-0.53,0.42-0.79,0.98-0.79,1.65l-3.77,0.02l-0.02-0.1c-0.08-1.38,0.54-2.59,1.84-3.66c1.31-1.06,3.01-1.6,5.1-1.6
		c2.03,0,3.67,0.52,4.91,1.55s1.87,2.51,1.87,4.45v7.75c0,0.72,0.05,1.41,0.15,2.07c0.1,0.66,0.25,1.31,0.47,1.94H519.51z
		 M514.72,463.79c0.98,0,1.86-0.25,2.65-0.74c0.79-0.49,1.31-1.06,1.57-1.69v-2.58h-3.11c-1.14,0-2.03,0.28-2.67,0.85
		c-0.64,0.56-0.97,1.23-0.97,1.99c0,0.67,0.22,1.2,0.65,1.59C513.28,463.59,513.91,463.79,514.72,463.79z"/>
	<path class="st1" d="M530.53,449.16l0.21,2.27c0.57-0.83,1.28-1.47,2.14-1.92s1.85-0.68,2.98-0.68c1.14,0,2.12,0.26,2.93,0.77
		s1.43,1.29,1.84,2.32c0.54-0.97,1.25-1.72,2.13-2.27s1.91-0.82,3.09-0.82c1.75,0,3.13,0.61,4.15,1.83
		c1.02,1.22,1.52,3.06,1.52,5.54v10.39h-3.92v-10.41c0-1.53-0.25-2.6-0.77-3.21c-0.51-0.62-1.28-0.93-2.3-0.93
		c-0.84,0-1.55,0.23-2.13,0.68s-1,1.06-1.26,1.82c0,0.16,0.01,0.3,0.02,0.42s0.02,0.23,0.02,0.34v11.29h-3.92v-10.41
		c0-1.47-0.26-2.53-0.78-3.17c-0.52-0.64-1.29-0.97-2.3-0.97c-0.79,0-1.47,0.15-2.02,0.46c-0.55,0.31-0.99,0.74-1.31,1.3v12.79
		h-3.92v-17.43H530.53z"/>
	<path class="st1" d="M563.05,466.93c-2.55,0-4.54-0.8-5.97-2.41c-1.43-1.61-2.15-3.69-2.15-6.24v-0.64c0-2.56,0.72-4.67,2.15-6.32
		c1.43-1.66,3.28-2.48,5.55-2.47c2.34,0,4.11,0.72,5.32,2.17c1.2,1.45,1.8,3.38,1.8,5.79v2.11h-10.78l-0.03,0.08
		c0.04,1.43,0.42,2.59,1.13,3.48s1.78,1.34,3.21,1.34c1.06,0,1.98-0.13,2.76-0.39c0.78-0.26,1.5-0.63,2.17-1.11l1.27,2.56
		c-0.67,0.58-1.55,1.07-2.64,1.47S564.47,466.93,563.05,466.93z M562.63,451.98c-1.02,0-1.84,0.37-2.45,1.1
		c-0.61,0.74-0.99,1.69-1.14,2.88l0.03,0.08h6.82v-0.31c0-1.12-0.26-2.02-0.78-2.71C564.58,452.32,563.75,451.98,562.63,451.98z"/>
</g>
<g>
	<path class="st2" d="M190.73,349.89c0,0-2.8,126.21,0,129.02c2.8,2.8,219.47,4.91,222.27,0c2.8-4.91-2.8-133.93-2.8-133.93
		L190.73,349.89z"/>
	<polygon class="st3" points="212.46,259.44 185.82,292.4 192.13,312.07 306.42,338.39 406.69,312.07 413,292.4 394.07,259.44 
		299.41,238.52 	"/>
	<path class="st4" d="M212.46,259.44h181.61c0,0-9.82-46.28-14.02-49.08c-4.21-2.8-153.56-4.21-155.66,0
		C222.28,214.56,212.46,259.44,212.46,259.44z"/>
	<polygon class="st2" points="192.13,312.07 212.46,316.75 212.46,259.44 185.82,292.4 	"/>
	<polygon class="st2" points="406.69,312.07 413,292.4 394.07,259.44 392,315.92 	"/>
	<path class="st4" d="M192.13,312.07c0,0-23.14,46.24-22.44,49.74c0.7,3.51,252.42,4.21,256.63,0c4.21-4.21-19.63-49.74-19.63-49.74
		H192.13z"/>
	<path class="st4" d="M192.13,312.07l20.33-52.63c0,0-37.4,18.93-37.63,20.33c-0.23,1.4-30.38,51.89-28.98,55.39
		C147.26,338.67,192.13,312.07,192.13,312.07z"/>
	<path class="st4" d="M406.69,312.07c0,0,39.97,24.44,44.17,23.42c4.21-1.02-19.63-51.5-22.09-54.31
		c-2.45-2.8-34.71-21.74-34.71-21.74L406.69,312.07z"/>
</g>
<g>
	<g>
		<path class="st5" d="M301.24,285.57c-8.88,0-16.6-2.4-22.95-7.12c-6.46-4.81-9.61-11.49-9.39-19.87l0.01-0.2l0.47-1.18l20.09-0.93
			v1.18c0,3.63,1.05,6.37,3.2,8.37c2.18,2.02,4.98,3,8.56,3c4.14,0,7.04-1.28,8.89-3.92c1.91-2.73,2.87-6.74,2.87-11.92
			c0-5.18-1.06-9.33-3.17-12.34c-2.04-2.92-5-4.34-9.05-4.34c-3.38,0-5.96,0.61-7.68,1.81c-1.74,1.21-2.95,2.81-3.7,4.9l-0.29,0.8
			l-18.65-1.23l5.66-54.88h54.72v17.4h-37.23l-2.2,18.68c1.45-0.8,3.1-1.49,4.94-2.07c2.76-0.87,5.8-1.35,9.05-1.44l0.63,0
			c8.77,0,15.71,2.87,20.62,8.52c4.97,5.73,7.5,13.83,7.5,24.08c0,9.48-2.73,17.37-8.12,23.47
			C320.61,282.46,312.27,285.57,301.24,285.57z"/>
		<path class="st6" d="M329.73,188.8v15.15h-37.1l-2.59,22.02c1.77-1.3,3.99-2.36,6.67-3.21c2.68-0.84,5.59-1.3,8.74-1.39
			c0.2,0,0.4,0,0.6,0c8.48,0,15.06,2.71,19.77,8.13c4.81,5.55,7.22,13.33,7.22,23.34c0,9.24-2.61,16.81-7.84,22.73
			c-5.22,5.91-13.21,8.87-23.96,8.87c-8.68,0-16.1-2.3-22.27-6.9c-6.17-4.6-9.15-10.91-8.94-18.94l0.13-0.32l18.2-0.84
			c0,3.93,1.19,6.99,3.56,9.19c2.37,2.2,5.48,3.3,9.32,3.3c4.49,0,7.76-1.47,9.81-4.4c2.05-2.94,3.08-7.12,3.08-12.56
			c0-5.44-1.12-9.77-3.37-12.98c-2.24-3.22-5.57-4.82-9.97-4.82c-3.63,0-6.4,0.67-8.32,2.01c-1.92,1.34-3.29,3.15-4.11,5.44
			l-16.64-1.1l5.44-52.71H329.73 M331.97,186.56h-2.25h-52.58h-2.03l-0.21,2.02l-5.44,52.71l-0.24,2.32l2.33,0.15l16.64,1.1
			l1.69,0.11l0.57-1.6c0.66-1.85,1.74-3.28,3.28-4.35c1.53-1.06,3.9-1.6,7.04-1.6c3.65,0,6.31,1.26,8.13,3.86
			c1.97,2.82,2.96,6.75,2.96,11.7c0,4.94-0.9,8.74-2.67,11.28c-1.62,2.32-4.22,3.44-7.97,3.44c-3.29,0-5.84-0.88-7.8-2.7
			c-1.91-1.77-2.84-4.24-2.84-7.55v-2.35l-2.35,0.11l-18.2,0.84l-1.45,0.07l-0.54,1.34l-0.13,0.32l-0.15,0.37l-0.01,0.4
			c-0.24,8.77,3.07,15.77,9.84,20.8c6.54,4.87,14.49,7.34,23.62,7.34c11.37,0,20-3.24,25.64-9.63c5.57-6.31,8.4-14.46,8.4-24.22
			c0-10.52-2.61-18.87-7.77-24.82c-5.13-5.91-12.35-8.91-21.47-8.91c-0.21,0-0.42,0-0.63,0c-3.38,0.09-6.52,0.6-9.38,1.5
			c-1.15,0.36-2.24,0.77-3.25,1.22l1.84-15.64h35.1h2.25v-2.25V188.8V186.56L331.97,186.56z"/>
	</g>
</g>
<g>
	<path d="M311.05,453.92c-0.35-1.71-0.62-3.21-0.81-4.52c-0.19-1.31-0.31-2.62-0.34-3.94c-1.92,2.72-4.42,4.99-7.5,6.82
		c-3.08,1.83-6.4,2.74-9.95,2.74c-5.89,0-10.37-1.51-13.45-4.52c-3.08-3.01-4.62-7.17-4.62-12.46c0-5.4,2.19-9.62,6.56-12.67
		c4.37-3.05,10.3-4.57,17.79-4.57h11.18v-5.59c0-3.31-1.01-5.93-3.03-7.86c-2.02-1.93-4.88-2.9-8.57-2.9c-3.34,0-6.04,0.84-8.1,2.51
		c-2.06,1.67-3.08,3.67-3.08,6.01l-9.77,0.1l-0.1-0.31c-0.24-4.11,1.68-7.87,5.77-11.29c4.09-3.41,9.38-5.12,15.86-5.12
		c6.41,0,11.56,1.63,15.46,4.88c3.9,3.26,5.85,7.95,5.85,14.08v27.22c0,2.02,0.1,3.97,0.31,5.85s0.59,3.73,1.15,5.54H311.05z
		 M293.97,446.4c3.73,0,7.09-0.96,10.08-2.87c3-1.92,4.95-4.11,5.85-6.58v-9.2h-11.55c-4.15,0-7.46,1.04-9.95,3.13
		c-2.49,2.09-3.74,4.54-3.74,7.37c0,2.51,0.78,4.49,2.35,5.96S290.9,446.4,293.97,446.4z"/>
</g>
<polyline class="st7" points="461,112 303.27,112 303.27,157 "/>
<polygon class="st1" points="286.15,157 319.12,157 302.63,174.75 "/>
<line class="st7" x1="475.25" y1="437.07" x2="350" y2="437.07"/>
<polygon class="st1" points="354,420.47 354,453.43 336.25,436.95 "/>
<g>
</g>
<g>
</g>
<g>
</g>
<g>
</g>
<g>
</g>
<g>
</g>
</svg>
